<svg id="b44fb752-9b1e-41c8-8b6b-70bd734f4565" data-name="icon75" xmlns="http://www.w3.org/2000/svg" viewBox="0 0 32 32">
  <path d="M27.676,25.783,21,10.787V3h1a1,1,0,0,0,0-2H20.5A1.50183,1.50183,0,0,0,19,2.5V11a1.00117,1.00117,0,0,0,.086.407L22.021,18H9.977l2.935-6.593A1.00117,1.00117,0,0,0,12.998,11V2.5a1.50183,1.50183,0,0,0-1.5-1.5h-1.5a1,1,0,0,0,0,2h1v7.788L4.322,25.784a3.70807,3.70807,0,0,0,3.387,5.217H24.286a3.70807,3.70807,0,0,0,3.387-5.217Zm-1.954,2.439A1.67877,1.67877,0,0,1,24.289,29H7.711a1.7074,1.7074,0,0,1-1.56-2.403L9.088,20H22.912l2.937,6.597A1.68166,1.68166,0,0,1,25.722,28.222Z" style="fill: #37a3a3"/>
  <rect id="afbe875a-64e0-48cc-8492-12eef7d92441" data-name="transparent rectangle" width="32" height="32" style="fill: none"/>
</svg>
